<?xml version="1.0" encoding="UTF-8" standalone="no"?>
<!DOCTYPE svg PUBLIC "-//W3C//DTD SVG 1.1//EN" "http://www.w3.org/Graphics/SVG/1.1/DTD/svg11.dtd">
<svg width="100%" height="100%" viewBox="0 0 1883 1883" version="1.1" xmlns="http://www.w3.org/2000/svg" xmlns:xlink="http://www.w3.org/1999/xlink" xml:space="preserve" xmlns:serif="http://www.serif.com/" style="fill-rule:evenodd;clip-rule:evenodd;stroke-linecap:round;stroke-linejoin:round;stroke-miterlimit:1.5;">
    <g transform="matrix(4.65236,0,0,4.65236,67.5062,-312.034)">
        <g>
            <g transform="matrix(1.04839,0,0,1.04839,-52.3374,-91.3542)">
                <circle cx="138" cy="264" r="93" style="fill:white;fill-opacity:0;stroke:white;stroke-width:8.54px;"/>
            </g>
            <g transform="matrix(0.634409,0,0,0.634409,-1.70839,13.4361)">
                <path d="M138,171C125.044,172.268 103.873,171.215 76.318,198.314C50.594,223.612 48.67,246.127 45,264" style="fill:rgb(255,38,255);fill-opacity:0;stroke:white;stroke-width:14.12px;"/>
            </g>
            <g transform="matrix(0.634409,0,0,0.634409,190.932,181.756)">
                <path d="M138,171C125.044,172.268 103.873,171.215 76.318,198.314C50.594,223.612 48.67,246.127 45,264" style="fill:rgb(255,38,255);fill-opacity:0;stroke:white;stroke-width:14.12px;"/>
            </g>
            <g transform="matrix(1.04839,0,0,1.04839,138.663,76.6458)">
                <circle cx="138" cy="264" r="93" style="fill:white;fill-opacity:0;stroke:white;stroke-width:8.54px;"/>
            </g>
            <g transform="matrix(0.543011,0,0,0.543011,32.4045,219.065)">
                <circle cx="138" cy="264" r="93" style="fill:white;fill-opacity:0;stroke:white;stroke-width:16.49px;"/>
            </g>
            <g transform="matrix(0.198925,0,0,0.198925,-0.111613,261.904)">
                <circle cx="138" cy="264" r="93" style="fill:white;fill-opacity:0;stroke:white;stroke-width:45.02px;"/>
            </g>
            <g transform="matrix(0.198925,0,0,0.198925,136.888,379.904)">
                <circle cx="138" cy="264" r="93" style="fill:white;fill-opacity:0;stroke:white;stroke-width:45.02px;"/>
            </g>
            <g transform="matrix(0.198925,0,0,0.198925,207.888,172.904)">
                <circle cx="138" cy="264" r="93" style="fill:white;fill-opacity:0;stroke:white;stroke-width:45.02px;"/>
            </g>
        </g>
    </g>
</svg>
