<?xml version="1.0" encoding="UTF-8" standalone="no"?>
<!DOCTYPE svg PUBLIC "-//W3C//DTD SVG 1.1//EN" "http://www.w3.org/Graphics/SVG/1.1/DTD/svg11.dtd">
<svg width="100%" height="100%" viewBox="0 0 293 548" version="1.1" xmlns="http://www.w3.org/2000/svg" xmlns:xlink="http://www.w3.org/1999/xlink" xml:space="preserve" xmlns:serif="http://www.serif.com/" style="fill-rule:evenodd;clip-rule:evenodd;stroke-linecap:round;stroke-linejoin:round;stroke-miterlimit:1.5;">
    <g transform="matrix(1,0,0,1,-1,0)">
        <path d="M59,268C58.333,269.833 55.167,272 54,274C52.938,275.821 52.667,278 52,280C51.333,282 51.132,284.221 50,286C48.833,287.833 46.5,289.5 45,291C43.667,292.333 41.833,293.667 41,295C40.272,296.165 40.167,297.667 40,299C39.835,300.323 40.323,301.706 40,303C39.667,304.333 39.167,306.167 38,307C36.833,307.833 34.672,308.304 33,308C31.167,307.667 28.504,306.655 27,305C25.333,303.167 23.943,299.828 23,297C22,294 21.5,289.333 21,287C20.712,285.656 21,283.833 20,283C19,282.167 16.167,282.833 15,282C13.833,281.167 13.117,279.486 13,278C12.5,271.667 13.333,253.667 12,244C10.861,235.745 6.667,226.833 5,220C3.637,214.41 2.453,208.736 2,203C1.5,196.667 1.667,187 2,182C2.204,178.934 3.167,175.5 4,173C4.707,170.879 5.584,168.731 7,167C8.5,165.167 10.859,163.482 13,162C15.167,160.5 17.384,158.616 20,158C22.833,157.333 26.7,157.529 30,158C33.5,158.5 37.492,159.538 41,161C45,162.667 50.333,165.667 54,168C57.206,170.04 60.017,172.645 63,175C66.167,177.5 69.901,180.064 73,183C76.167,186 79.667,190.667 82,193C83.509,194.509 85.333,197 87,197C88.667,197 90.333,194.333 92,193C94.5,191 98.313,187.151 102,185C106,182.667 112.167,180.667 116,179C119.011,177.691 123.776,178.046 125,175C132.5,156.333 153.833,86.5 161,67C162.311,63.433 165.333,60.5 168,58C170.63,55.534 174,53.5 177,52C179.828,50.586 183.833,49.5 186,49C187.299,48.7 188.833,49.5 190,49C191.167,48.5 191.849,46.822 193,46C194.167,45.167 196,44.5 197,44C197.667,43.667 198.715,43.689 199,43C201,38.167 207.667,20.167 209,15C209.3,13.836 207.5,13 207,12C206.529,11.057 206,10 206,9C206,8 206.667,7 207,6C207.333,5 207.342,3.823 208,3C208.667,2.167 209.833,1.167 211,1C212.167,0.833 213.833,1.667 215,2C216.014,2.29 217.167,2.5 218,3C218.808,3.485 219.5,4.333 220,5C220.447,5.596 221,6.255 221,7C221,7.833 220.333,9 220,10C219.667,11 219.5,12.167 219,13C218.515,13.808 217.667,14.5 217,15C216.404,15.447 215.257,15.3 215,16C213.167,21 207.167,39.667 206,45C205.743,46.174 207.404,46.957 208,48C208.667,49.167 208.862,51.037 210,52C212.167,53.833 218.333,56.833 221,59C223.021,60.642 224.592,62.81 226,65C227.5,67.333 229.167,70.5 230,73C230.745,75.236 230.708,77.661 231,80C231.333,82.667 232.112,85.984 232,89C231.833,93.5 228.333,103.167 230,107C231.667,110.833 239,110.167 242,112C244.413,113.475 246.398,115.669 248,118C249.833,120.667 252.333,125 253,128C253.583,130.623 252.616,133.384 252,136C251.333,138.833 250.754,142.369 249,145C247,148 242.833,152.167 240,154C237.692,155.493 234.711,155.548 232,156C229,156.5 224.667,156.667 222,157C219.988,157.251 217.154,156.333 216,158C214.5,160.167 214.333,167.833 213,170C212.109,171.448 209.7,171 208,171C206,171 202.333,169.833 201,170C200.26,170.092 199.617,171.361 200,172C200.5,172.833 202.431,174.437 204,175C210.5,177.333 232.833,183.667 239,186C240.124,186.425 240.578,187.875 241,189C241.5,190.333 242.333,192.667 242,194C241.667,195.333 240,196.333 239,197C238.123,197.585 237.054,198 236,198C234.5,198 231.919,197.655 230,197C223.167,194.667 201,185.333 195,184C193.341,183.631 194,188 194,189C194,189.471 195.135,189.548 195,190C194.5,191.667 190.312,195.79 191,199C192,203.667 198.333,211.833 201,218C203.51,223.805 207.56,229.7 207,236C206.333,243.5 198.833,258.167 197,263C196.736,263.697 195.617,264.361 196,265C196.5,265.833 198.533,267.21 200,268C202.167,269.167 206.333,271 209,272C211.272,272.852 213.684,273.276 216,274C218.667,274.833 222.333,276.333 225,277C227.287,277.572 229.764,278.745 232,278C234.5,277.167 237.5,273.833 240,272C242.312,270.304 244.833,268.333 247,267C248.904,265.828 251.667,264.5 253,264C253.624,263.766 254.737,264.613 255,264C255.5,262.833 255.5,258.667 256,257C256.345,255.849 257.202,254.898 258,254C259.333,252.5 263.413,250.767 264,248C265.167,242.5 264.333,226.333 265,221C265.241,219.071 267.667,217.167 268,216C268.205,215.283 267.277,214.692 267,214C266.667,213.167 266,212 266,211C266,210 266.255,208.745 267,208C267.833,207.167 269.545,206.323 271,206C272.5,205.667 274.667,205.667 276,206C277.166,206.291 278.167,207.333 279,208C279.736,208.589 280.702,209.106 281,210C281.333,211 281.333,213 281,214C280.702,214.894 279.167,215.333 279,216C278.833,216.667 279.854,217.269 280,218C280.333,219.667 280.91,223.314 281,226C281.167,231 280.333,243.5 281,248C281.313,250.111 283.833,251.5 285,253C286.023,254.316 287.726,255.356 288,257C288.5,260 287.333,268.167 288,271C288.382,272.622 291.167,273 292,274C292.675,274.81 292.869,275.954 293,277C293.167,278.333 293.5,280.667 293,282C292.503,283.324 290.833,284.5 290,285C289.428,285.343 288.333,284.667 288,285C287.667,285.333 287.6,286.467 288,287C288.5,287.667 290.333,288.167 291,289C291.658,289.823 291.851,290.957 292,292C292.167,293.167 292.333,295 292,296C291.702,296.894 290.667,297.5 290,298C289.404,298.447 288.333,298.333 288,299C287.667,299.667 287.836,301.014 288,302C288.167,303 288.833,304 289,305C289.164,305.986 289.164,307.014 289,308C288.833,309 288.613,310.142 288,311C287.167,312.167 285.472,313.822 284,315C282.333,316.333 280.332,318.417 278,319C275.333,319.667 271.167,319.333 268,319C264.944,318.678 261.333,318 259,317C257.038,316.159 255.167,314.333 254,313C253.018,311.878 252.323,310.455 252,309C251.667,307.5 253.57,304.561 252,304C249.667,303.167 242.64,304.502 238,304C231.833,303.333 221.333,301.5 215,300C209.871,298.785 204.667,297 200,295C195.476,293.061 189.836,283.977 187,288C179.833,298.167 162.167,343.5 157,356C156.1,358.178 155.133,360.808 156,363C158.833,370.167 169.333,387.167 174,399C178.451,410.287 181.5,423.833 184,434C186.107,442.57 187.549,451.295 189,460C190.5,469 192.333,481.167 193,488C193.421,492.313 190.667,498.167 193,501C195.333,503.833 203.167,503.333 207,505C210.307,506.438 213.5,508.833 216,511C218.322,513.013 220.333,515.667 222,518C223.562,520.187 225.167,523 226,525C226.654,526.569 227.631,528.422 227,530C226.333,531.667 223.942,533.665 222,535C219.333,536.833 214.868,539.424 211,541C206.5,542.833 200,545 195,546C190.412,546.918 185.679,547 181,547C175.833,547 169.5,547 164,546C158.502,545 152.333,543 148,541C144.306,539.295 139.167,536.667 138,534C136.833,531.333 140,527.667 141,525C141.891,522.623 142.555,520.087 144,518C145.5,515.833 147.852,513.841 150,512C152.333,510 155.167,507.5 158,506C160.795,504.52 165.754,505.907 167,503C168.5,499.5 167.438,490.984 167,485C166.5,478.167 165.488,469.587 164,462C162.333,453.5 159.5,442.667 157,434C154.663,425.898 152.16,417.818 149,410C145.833,402.167 141.667,394 138,387C134.604,380.517 129.333,372 127,368C126.021,366.321 125,363.833 124,363C123.232,362.36 121.083,362.003 121,363C120.833,365 122.383,370.992 123,375C123.667,379.333 124.795,384.29 125,389C125.333,396.667 126,411 125,421C124.05,430.498 121.333,440.167 119,449C116.765,457.459 113.833,466.667 111,474C108.474,480.537 102.667,489.167 102,493C101.634,495.103 105.293,495.719 107,497C109.667,499 115.333,502.333 118,505C120.224,507.224 122.006,510.017 123,513C124,516 125.667,520.167 124,523C122.333,525.833 116.988,528.272 113,530C108,532.167 100.566,535.001 94,536C86.333,537.167 73.833,537.333 67,537C62.233,536.767 57.167,535.5 53,534C49.07,532.585 44.833,529.667 42,528C39.928,526.781 36.5,526.333 36,524C35.5,521.667 37.833,516.833 39,514C40.023,511.515 41.171,508.969 43,507C45.167,504.667 48.794,502.04 52,500C55.667,497.667 61.333,494.333 65,493C67.837,491.968 72.089,494.336 74,492C77,488.333 80.309,478.124 83,471C85.833,463.5 88.833,454 91,447C92.841,441.051 95.195,435.175 96,429C97,421.333 97,409.333 97,401C97,393.659 97.167,385.333 96,379C94.968,373.398 91.667,367.333 90,363C88.711,359.649 88,355.167 86,353C84.068,350.907 80.52,351.326 78,350C74.833,348.333 70,345.667 67,343C64.159,340.475 61,337.167 60,334C59,330.833 60.422,327.3 61,324C63.833,307.833 75.167,252.5 77,237C77.306,234.415 73.408,233.19 72,231C70.5,228.667 68.667,225.5 68,223C67.399,220.745 68.667,218.167 68,216C67.333,213.833 65.539,211.847 64,210C61.5,207 56.5,201.167 53,198C49.983,195.27 45.833,192.333 43,191C40.867,189.996 38,190.167 36,190C34.339,189.862 32.167,189.333 31,190C29.833,190.667 29.335,192.547 29,194C28.5,196.167 27.856,199.985 28,203C28.167,206.5 29.079,211.051 30,215C31.167,220 32.333,227.667 35,233C37.654,238.308 42.667,243 46,247C48.871,250.445 53,254.333 55,257C56.342,258.789 57.333,261.167 58,263C58.581,264.597 59.581,266.403 59,268Z" style="fill:rgb(128,132,151);stroke:rgb(128,132,151);stroke-width:1.33px;"/>
    </g>
</svg>
